PathFileType	4	(x/y/z)	S06_M20_T22
DataRate	CameraRate	NumFrames	NumMarkers	Units	OrigDataRate	OrigDataStartFrame	OrigNumFrames
240	240	4	51	mm	240	448	511
Frame#	Time	Sternum			R.Acromium			L.Acromium			Top.Head			R.ASIS			L.ASIS			R.PSIS			L.PSIS			R.Great.Tro			L.Great.Tro			R.Iliac.Crest			L.Iliac.Crest			V.Sacral			R.Thigh.Upper.Post			R.Thigh.Lower.Ant			R.Thigh.Lower.Post			R.Thigh.Upper.Ant			R.Knee.Lat			R.Knee.Med			R.Shank.Upper.Post			R.Shank.Lower.Ant			R.Shank.Lower.Post			R.Shank.Upper.Ant			R.Ankle.Lat			R.Ankle.Med			R.Heel.Upper			R.Heel.Med			R.Heel.Lat			R.Toe.Lat			R.Toe.Med			R.Toe.Tip			L.Thigh.Upper.Post			L.Thigh.Lower.Ant			L.Thigh.Lower.Post			L.Thigh.Upper.Ant			L.Knee.Lat			L.Knee.Med			L.Shank.Upper.Post			L.Shank.Lower.Ant			L.Shank.Lower.Post			L.Shank.Upper.Ant			L.Ankle.Lat			L.Ankle.Med			L.Heel.Upper			L.Heel.Med			L.Heel.Lat			L.Toe.Lat			L.Toe.Med			L.Toe.Tip			Cervical.Spine			Back			
		X1	Y1	Z1	X2	Y2	Z2	X3	Y3	Z3	X4	Y4	Z4	X5	Y5	Z5	X6	Y6	Z6	X7	Y7	Z7	X8	Y8	Z8	X9	Y9	Z9	X10	Y10	Z10	X11	Y11	Z11	X12	Y12	Z12	X13	Y13	Z13	X14	Y14	Z14	X15	Y15	Z15	X16	Y16	Z16	X17	Y17	Z17	X18	Y18	Z18	X19	Y19	Z19	X20	Y20	Z20	X21	Y21	Z21	X22	Y22	Z22	X23	Y23	Z23	X24	Y24	Z24	X25	Y25	Z25	X26	Y26	Z26	X27	Y27	Z27	X28	Y28	Z28	X29	Y29	Z29	X30	Y30	Z30	X31	Y31	Z31	X32	Y32	Z32	X33	Y33	Z33	X34	Y34	Z34	X35	Y35	Z35	X36	Y36	Z36	X37	Y37	Z37	X38	Y38	Z38	X39	Y39	Z39	X40	Y40	Z40	X41	Y41	Z41	X42	Y42	Z42	X43	Y43	Z43	X44	Y44	Z44	X45	Y45	Z45	X46	Y46	Z46	X47	Y47	Z47	X48	Y48	Z48	X49	Y49	Z49	X50	Y50	Z50	X51	Y51	Z51	

448	1.8625	774.46	1268	316.57	645.74	1472	486.86	631.44	1472.8	135.5	686.17	1790.1	312.59	735.28	1028.6	436.23	736.51	1028.2	182.03	536.7	1047.3	345.2	536.67	1053.9	264.43	683	953.14	487.78	630.7	963.42	127.27	647.38	1099.2	470	667.09	1102.8	147.38	522.95	1016	306.38	760.86	716.6	479.78	845.69	665.73	445.11	785.07	633.03	455.45	824	752.44	464.58	849.32	547.54	447.2	864.04	554.93	317.83	914.54	324.98	445.52	1000.5	298.47	438.57	950.54	256.13	431.93	964.41	365.37	450.39	1049.9	154.71	418.99	1073.9	179.7	339.55	1033.2	87.173	358.09	1062.8	74.024	327.23	1054	60.151	389.99	1195	144.76	466.89	1222	193.44	359.64	1257.7	233.36	420.19	611.36	709.1	160.27	639.58	617.14	215.62	569.32	630.73	181.4	676.43	702.01	191	521.45	541.92	201.35	552.61	544.31	319.72	405.88	335.51	224.97	448.96	257.99	229.03	380.77	269.89	246.83	470.52	324.27	213.52	385.89	120.95	255.09	400.53	142.97	339.98	297.81	89.855	298.38	299.01	61.865	329.76	302.28	65.032	268.05	481.1	44.839	235.39	497.21	41.475	355.56	572.48	45.223	303.59	586.91	1524.6	312.86	532.95	1250.1	309.2
449	1.8667	779.86	1267.3	316.78	651.2	1471.2	487.19	636.82	1472.1	135.8	691.42	1789.5	313.1	740.71	1027.9	436.43	741.8	1027.5	182.18	542.04	1046.7	345.55	541.97	1053.2	264.78	688.46	952.45	487.96	635.77	962.77	127.52	652.85	1098.5	470.27	672.34	1102.1	147.62	528.26	1015.3	306.75	766.22	715.92	479.39	851.02	665.19	444.72	790.41	632.4	454.9	829.25	751.82	464.39	854.58	547.07	446.75	869.51	554.78	317.41	920.74	324.5	444.72	1006.8	298.39	437.97	957.11	255.86	431.07	970.35	365.09	449.86	1057	154.89	418.24	1081.2	180.32	338.92	1041.1	87.329	357.05	1070.9	74.575	326.18	1062	60.332	388.85	1202.2	145.76	466.53	1229	195.21	359.54	1264.3	235.12	420.41	615.78	708.69	160.37	643.74	616.63	215.55	573.53	630.43	181.49	680.87	701.39	190.94	525.38	541.76	201.49	556.79	543.94	319.76	408.39	336.17	225.07	450.84	258.32	229.14	382.76	270.76	246.92	472.95	324.41	213.63	386.68	121.76	255.09	401.46	143.67	340.01	298.42	91.251	298.35	299.4	63.274	329.75	302.71	66.38	268.04	481.33	44.888	235.39	497.4	41.543	355.58	572.67	44.956	303.61	592.36	1524	313.21	538.32	1249.5	309.51
450	1.8708	785.29	1266.5	317	656.69	1470.5	487.52	642.22	1471.5	136.1	696.69	1788.8	313.61	746.17	1027.2	436.64	747.11	1026.8	182.34	547.4	1046	345.9	547.3	1052.5	265.14	693.94	951.8	488.13	640.86	962.15	127.78	658.34	1097.8	470.53	677.62	1101.4	147.86	533.6	1014.6	307.1	771.74	715.32	479.04	856.5	664.74	444.36	795.91	631.86	454.43	834.63	751.32	464.19	860	546.66	446.35	875.15	554.7	317.03	926.84	324.03	443.93	1013.1	298.21	437.37	963.49	255.56	430.23	976.25	364.74	449.33	1063.9	154.93	417.49	1088.2	180.75	338.27	1048.5	87.348	356.04	1078.5	74.952	325.16	1069.6	60.365	387.74	1209	146.48	466.11	1235.6	196.64	359.34	1270.5	236.51	420.51	620.23	708.29	160.45	647.94	616.14	215.46	577.79	630.15	181.57	685.35	700.8	190.87	529.35	541.62	201.61	561.03	543.59	319.79	410.95	336.86	225.15	452.76	258.68	229.24	384.79	271.66	246.99	475.42	324.58	213.73	387.51	122.62	255.07	402.43	144.42	340.03	299.07	92.734	298.31	299.82	64.773	329.74	303.17	67.809	268.02	481.57	44.939	235.39	497.59	41.627	355.59	572.86	44.695	303.63	597.82	1523.4	313.55	543.71	1248.8	309.83
451	1.875	790.73	1265.8	317.23	662.18	1469.8	487.85	647.65	1470.9	136.41	701.97	1788.2	314.13	751.65	1026.5	436.86	752.44	1026.1	182.5	552.78	1045.3	346.23	552.66	1051.9	265.49	699.45	951.17	488.29	645.98	961.55	128.04	663.84	1097.2	470.79	682.92	1100.7	148.11	538.96	1013.9	307.46	777.43	714.81	478.74	862.13	664.4	444.03	801.58	631.39	454.02	840.14	750.92	463.99	865.57	546.3	445.98	880.95	554.68	316.72	932.84	323.56	443.17	1019.1	297.93	436.77	969.69	255.22	429.4	982.11	364.34	448.82	1070.4	154.82	416.74	1094.8	181	337.6	1055.6	87.223	355.06	1085.7	75.143	324.16	1076.8	60.243	386.67	1215.6	146.94	465.62	1241.9	197.72	359.06	1276.6	237.55	420.49	624.74	707.92	160.52	652.2	615.68	215.37	582.1	629.9	181.64	689.88	700.22	190.79	533.37	541.49	201.72	565.31	543.25	319.81	413.55	337.58	225.21	454.72	259.07	229.32	386.88	272.6	247.04	477.93	324.78	213.8	388.39	123.53	255.03	403.45	145.22	340.03	299.77	94.304	298.25	300.27	66.363	329.7	303.68	69.321	267.99	481.82	44.992	235.38	497.78	41.728	355.59	573.05	44.443	303.64	603.31	1522.8	313.9	549.11	1248.2	310.15
